<svg width="32" height="32" viewBox="0 0 32 32" fill="none" xmlns="http://www.w3.org/2000/svg">
<rect width="32" height="32" fill="white"/>
<rect width="32" height="32" fill="#008F7A"/>
<path d="M7.80691 19.3363C8.09615 19.3363 8.29638 19.3473 8.40763 19.3694V19.0721C8.22964 19.028 8.00715 18.995 7.74017 18.973C7.45093 18.951 7.17282 18.9399 6.90584 18.9399C6.28288 18.9399 5.68216 19.006 5.10369 19.1381C4.50298 19.2923 3.98013 19.5125 3.53516 19.7988C3.06794 20.1071 2.70083 20.4925 2.43385 20.955C2.14462 21.4174 2 21.979 2 22.6396C2 23.4545 2.17799 24.1371 2.53397 24.6877C2.88995 25.2603 3.35717 25.7117 3.93564 26.042C4.5141 26.3944 5.18156 26.6366 5.93802 26.7688C6.69448 26.9229 7.47318 27 8.27413 27C9.87604 27 11.3778 26.7578 12.7795 26.2733C14.1812 25.8108 15.4827 25.1612 16.6841 24.3243C17.8856 23.4875 18.9869 22.4965 19.9881 21.3514C20.9893 20.2062 21.8903 18.962 22.6913 17.6186L22.9917 17.1892C24.2153 15.1852 25.3834 13.1702 26.4958 11.1441C27.6305 9.0961 28.7986 7.04805 30 5L26.7294 5.13213C26.5514 5.55055 26.2733 6.09009 25.8951 6.75075C25.5169 7.41141 25.083 8.13814 24.5936 8.93093C24.0151 9.87788 23.3699 10.8028 22.6579 11.7057C21.946 12.5866 21.234 13.3684 20.522 14.0511C19.8323 14.7337 19.176 15.2843 18.553 15.7027C17.9301 16.0991 17.4184 16.2973 17.0179 16.2973C16.7731 16.2973 16.5618 16.2202 16.3838 16.0661C16.228 15.8899 16.1502 15.6697 16.1502 15.4054C16.1502 14.7007 16.673 13.5115 17.7187 11.8378C18.7644 10.1642 20.2217 7.88488 22.0906 5L18.553 5.13213C17.9523 6.14514 17.3516 7.12513 16.7509 8.07207C16.1502 9.01902 15.6051 9.92192 15.1156 10.7808C14.6484 11.6176 14.259 12.3884 13.9476 13.0931C13.6361 13.7978 13.4803 14.4254 13.4803 14.976C13.4803 15.5485 13.6472 16.044 13.9809 16.4625C14.2924 16.8809 14.8153 17.0901 15.5495 17.0901C16.2614 17.0901 16.9623 16.9139 17.652 16.5616C18.3417 16.2092 18.998 15.7908 19.621 15.3063C20.2439 14.7998 20.8002 14.2823 21.2896 13.7538C21.8013 13.2032 22.2241 12.7297 22.5578 12.3333L22.6246 12.3994C22.1351 13.2142 21.6011 14.1281 21.0226 15.1411C20.4442 16.1542 19.8212 17.1892 19.1538 18.2462C18.5085 19.3033 17.7966 20.3273 17.0179 21.3183C16.2614 22.3313 15.4493 23.2232 14.5816 23.994C13.7139 24.7868 12.7795 25.4144 11.7783 25.8769C10.7771 26.3614 9.70918 26.6036 8.57449 26.6036C7.50655 26.6036 6.61661 26.2733 5.90465 25.6126C5.17044 24.952 4.80334 24.038 4.80334 22.8709C4.80334 21.8799 5.07032 21.043 5.60429 20.3604C6.11601 19.6777 6.85022 19.3363 7.80691 19.3363Z" fill="white"/>
</svg>
